<?xml version="1.0" encoding="UTF-8" standalone="no"?>
<!DOCTYPE svg PUBLIC "-//W3C//DTD SVG 1.1//EN" "http://www.w3.org/Graphics/SVG/1.1/DTD/svg11.dtd">
<svg width="100%" height="100%" viewBox="0 0 539 539" version="1.1" xmlns="http://www.w3.org/2000/svg" xmlns:xlink="http://www.w3.org/1999/xlink" xml:space="preserve" xmlns:serif="http://www.serif.com/" style="fill-rule:evenodd;clip-rule:evenodd;stroke-linecap:round;stroke-linejoin:round;stroke-miterlimit:1.5;">
    <g transform="matrix(0.498548,0,0,0.498548,0,0)">
        <g id="Layer3">
            <path d="M641.675,234.563C649.538,194.25 823.453,126.12 931.004,211.715C976.716,248.095 1036.67,306.682 992.803,603.532C977.004,710.454 963.657,800.273 1042.39,822.767C924.599,877.735 817.738,753.679 803.014,709.508C763.019,589.523 855.824,519.153 699.241,374.725C667.338,345.297 664.047,324.671 647.05,316.109C628.895,306.963 644.187,239.588 641.675,234.563Z" style="fill:rgb(87,67,62);"/>
        </g>
        <g transform="matrix(1.31966,0,0,1.40649,-328.1,-248.755)">
            <g id="Layer1">
                <ellipse cx="600.271" cy="564.644" rx="293.901" ry="251.183" style="fill:rgb(248,231,219);"/>
            </g>
        </g>
        <g id="Layer11" serif:id="Layer1" transform="matrix(1.01213,0,0,0.884343,0.465619,7.03195)">
            <path d="M839.823,633.174C603.672,617.531 417.784,457.241 417.784,262.084C417.784,238.781 420.434,215.974 425.504,193.852C438.186,192.71 451.046,192.125 464.055,192.125C678.115,192.125 851.905,350.428 851.905,545.413C851.905,575.704 847.711,605.11 839.823,633.174Z" style="fill:rgb(87,67,62);"/>
            <g transform="matrix(0.98116,0,0,1,8.17095,3.19744e-14)">
                <path d="M76.895,524.184C88.351,348.471 241.068,207.153 432.93,193.249C433.435,199.857 433.692,206.52 433.692,213.233C433.692,379.935 275.44,516.211 76.895,524.184Z" style="fill:rgb(87,67,62);"/>
            </g>
        </g>
        <g id="Layer2">
            <g transform="matrix(1.1823,0,0,1,-93.9977,12.1881)">
                <path d="M391.597,756.663C456.712,771.157 552.118,746.332 584.509,680.314" style="fill:none;stroke:black;stroke-width:19.12px;"/>
            </g>
            <g transform="matrix(1.35764,0,0,1.18245,64.7726,-83.6167)">
                <ellipse cx="294.513" cy="521.727" rx="20.434" ry="42.696"/>
            </g>
            <g transform="matrix(1.35764,0,0,1.18245,-225.6,-88.0308)">
                <ellipse cx="294.513" cy="521.727" rx="20.434" ry="42.696"/>
            </g>
        </g>
        <g id="Layer4" transform="matrix(0.928513,0,0,0.781109,-4.18122,113.092)">
            <g transform="matrix(1.07699,0,0,1.28023,-9.27271,-145.426)">
                <path d="M336.994,521.412C332.592,521.073 329.293,517.224 329.631,512.822C329.97,508.419 333.819,505.12 338.222,505.459C369.855,507.892 369.174,508.825 400.491,506.589C404.895,506.274 408.726,509.594 409.04,513.998C409.355,518.402 406.035,522.233 401.631,522.548C369.124,524.87 369.83,523.937 336.994,521.412Z"/>
            </g>
            <g transform="matrix(1.1999,0,0,1.10581,-89.8868,-25.2383)">
                <path d="M367.068,466.928L367.068,556.098C367.068,580.705 351.58,600.683 332.502,600.683L190.29,600.683C171.213,600.683 155.724,580.705 155.724,556.098L155.724,466.928C155.724,442.321 171.213,422.343 190.29,422.343L332.502,422.343C351.58,422.343 367.068,442.321 367.068,466.928Z" style="fill:none;stroke:black;stroke-width:21px;"/>
            </g>
            <g transform="matrix(1.1999,0,0,1.10581,241.356,-25.0599)">
                <path d="M367.068,466.928L367.068,556.098C367.068,580.705 351.58,600.683 332.502,600.683L190.29,600.683C171.213,600.683 155.724,580.705 155.724,556.098L155.724,466.928C155.724,442.321 171.213,422.343 190.29,422.343L332.502,422.343C351.58,422.343 367.068,442.321 367.068,466.928Z" style="fill:none;stroke:black;stroke-width:21px;"/>
            </g>
        </g>
    </g>
</svg>
